G04 #@! TF.GenerationSoftware,KiCad,Pcbnew,(6.0.4)*
G04 #@! TF.CreationDate,2023-02-21T11:49:36-08:00*
G04 #@! TF.ProjectId,Lab4_Exercise,4c616234-5f45-4786-9572-636973652e6b,rev?*
G04 #@! TF.SameCoordinates,Original*
G04 #@! TF.FileFunction,Legend,Top*
G04 #@! TF.FilePolarity,Positive*
%FSLAX46Y46*%
G04 Gerber Fmt 4.6, Leading zero omitted, Abs format (unit mm)*
G04 Created by KiCad (PCBNEW (6.0.4)) date 2023-02-21 11:49:36*
%MOMM*%
%LPD*%
G01*
G04 APERTURE LIST*
%ADD10C,0.150000*%
%ADD11C,0.120000*%
G04 APERTURE END LIST*
D10*
X152166666Y-102452380D02*
X152166666Y-101452380D01*
X152738095Y-102452380D02*
X152309523Y-101880952D01*
X152738095Y-101452380D02*
X152166666Y-102023809D01*
X153595238Y-102452380D02*
X153595238Y-101928571D01*
X153547619Y-101833333D01*
X153452380Y-101785714D01*
X153261904Y-101785714D01*
X153166666Y-101833333D01*
X153595238Y-102404761D02*
X153500000Y-102452380D01*
X153261904Y-102452380D01*
X153166666Y-102404761D01*
X153119047Y-102309523D01*
X153119047Y-102214285D01*
X153166666Y-102119047D01*
X153261904Y-102071428D01*
X153500000Y-102071428D01*
X153595238Y-102023809D01*
X153928571Y-101785714D02*
X154309523Y-101785714D01*
X154071428Y-101452380D02*
X154071428Y-102309523D01*
X154119047Y-102404761D01*
X154214285Y-102452380D01*
X154309523Y-102452380D01*
X154642857Y-102452380D02*
X154642857Y-101452380D01*
X155071428Y-102452380D02*
X155071428Y-101928571D01*
X155023809Y-101833333D01*
X154928571Y-101785714D01*
X154785714Y-101785714D01*
X154690476Y-101833333D01*
X154642857Y-101880952D01*
X155452380Y-101785714D02*
X155690476Y-102452380D01*
X155928571Y-101785714D02*
X155690476Y-102452380D01*
X155595238Y-102690476D01*
X155547619Y-102738095D01*
X155452380Y-102785714D01*
G04 #@! TO.C,SW1*
X160806666Y-84344761D02*
X160949523Y-84392380D01*
X161187619Y-84392380D01*
X161282857Y-84344761D01*
X161330476Y-84297142D01*
X161378095Y-84201904D01*
X161378095Y-84106666D01*
X161330476Y-84011428D01*
X161282857Y-83963809D01*
X161187619Y-83916190D01*
X160997142Y-83868571D01*
X160901904Y-83820952D01*
X160854285Y-83773333D01*
X160806666Y-83678095D01*
X160806666Y-83582857D01*
X160854285Y-83487619D01*
X160901904Y-83440000D01*
X160997142Y-83392380D01*
X161235238Y-83392380D01*
X161378095Y-83440000D01*
X161711428Y-83392380D02*
X161949523Y-84392380D01*
X162140000Y-83678095D01*
X162330476Y-84392380D01*
X162568571Y-83392380D01*
X163473333Y-84392380D02*
X162901904Y-84392380D01*
X163187619Y-84392380D02*
X163187619Y-83392380D01*
X163092380Y-83535238D01*
X162997142Y-83630476D01*
X162901904Y-83678095D01*
G04 #@! TO.C,R1*
X151833333Y-74452380D02*
X151500000Y-73976190D01*
X151261904Y-74452380D02*
X151261904Y-73452380D01*
X151642857Y-73452380D01*
X151738095Y-73500000D01*
X151785714Y-73547619D01*
X151833333Y-73642857D01*
X151833333Y-73785714D01*
X151785714Y-73880952D01*
X151738095Y-73928571D01*
X151642857Y-73976190D01*
X151261904Y-73976190D01*
X152785714Y-74452380D02*
X152214285Y-74452380D01*
X152500000Y-74452380D02*
X152500000Y-73452380D01*
X152404761Y-73595238D01*
X152309523Y-73690476D01*
X152214285Y-73738095D01*
G04 #@! TO.C,J1*
X149406666Y-82632380D02*
X149406666Y-83346666D01*
X149359047Y-83489523D01*
X149263809Y-83584761D01*
X149120952Y-83632380D01*
X149025714Y-83632380D01*
X150406666Y-83632380D02*
X149835238Y-83632380D01*
X150120952Y-83632380D02*
X150120952Y-82632380D01*
X150025714Y-82775238D01*
X149930476Y-82870476D01*
X149835238Y-82918095D01*
G04 #@! TO.C,D1*
X142222380Y-96563095D02*
X141222380Y-96563095D01*
X141222380Y-96325000D01*
X141270000Y-96182142D01*
X141365238Y-96086904D01*
X141460476Y-96039285D01*
X141650952Y-95991666D01*
X141793809Y-95991666D01*
X141984285Y-96039285D01*
X142079523Y-96086904D01*
X142174761Y-96182142D01*
X142222380Y-96325000D01*
X142222380Y-96563095D01*
X142222380Y-95039285D02*
X142222380Y-95610714D01*
X142222380Y-95325000D02*
X141222380Y-95325000D01*
X141365238Y-95420238D01*
X141460476Y-95515476D01*
X141508095Y-95610714D01*
G04 #@! TO.C,C1*
X150147142Y-95726666D02*
X150194761Y-95774285D01*
X150242380Y-95917142D01*
X150242380Y-96012380D01*
X150194761Y-96155238D01*
X150099523Y-96250476D01*
X150004285Y-96298095D01*
X149813809Y-96345714D01*
X149670952Y-96345714D01*
X149480476Y-96298095D01*
X149385238Y-96250476D01*
X149290000Y-96155238D01*
X149242380Y-96012380D01*
X149242380Y-95917142D01*
X149290000Y-95774285D01*
X149337619Y-95726666D01*
X150242380Y-94774285D02*
X150242380Y-95345714D01*
X150242380Y-95060000D02*
X149242380Y-95060000D01*
X149385238Y-95155238D01*
X149480476Y-95250476D01*
X149528095Y-95345714D01*
G04 #@! TO.C,R2*
X154853333Y-69312380D02*
X154520000Y-68836190D01*
X154281904Y-69312380D02*
X154281904Y-68312380D01*
X154662857Y-68312380D01*
X154758095Y-68360000D01*
X154805714Y-68407619D01*
X154853333Y-68502857D01*
X154853333Y-68645714D01*
X154805714Y-68740952D01*
X154758095Y-68788571D01*
X154662857Y-68836190D01*
X154281904Y-68836190D01*
X155234285Y-68407619D02*
X155281904Y-68360000D01*
X155377142Y-68312380D01*
X155615238Y-68312380D01*
X155710476Y-68360000D01*
X155758095Y-68407619D01*
X155805714Y-68502857D01*
X155805714Y-68598095D01*
X155758095Y-68740952D01*
X155186666Y-69312380D01*
X155805714Y-69312380D01*
D11*
G04 #@! TO.C,SW1*
X169140000Y-85540000D02*
X169140000Y-90740000D01*
X154840000Y-85140000D02*
X154840000Y-83840000D01*
X157190000Y-84790000D02*
X167090000Y-84790000D01*
X154840000Y-83840000D02*
X156140000Y-83840000D01*
X155140000Y-90740000D02*
X155140000Y-85540000D01*
X167090000Y-91490000D02*
X157190000Y-91490000D01*
G04 #@! TO.C,R1*
X162520000Y-81540000D02*
X162520000Y-76300000D01*
X163370000Y-78920000D02*
X162520000Y-78920000D01*
X145930000Y-78920000D02*
X146780000Y-78920000D01*
X146780000Y-81540000D02*
X162520000Y-81540000D01*
X162520000Y-76300000D02*
X146780000Y-76300000D01*
X146780000Y-76300000D02*
X146780000Y-81540000D01*
G04 #@! TO.C,J1*
X152800000Y-88990000D02*
X152800000Y-84270000D01*
X148440000Y-84270000D02*
X148440000Y-84070000D01*
X148440000Y-84170000D02*
X148140000Y-84170000D01*
X150240000Y-84880000D02*
X150240000Y-84270000D01*
X152800000Y-84270000D02*
X146680000Y-84270000D01*
X146680000Y-84270000D02*
X146680000Y-88990000D01*
X148440000Y-84070000D02*
X148140000Y-84070000D01*
X152190000Y-84880000D02*
X150240000Y-84880000D01*
X149640000Y-88380000D02*
X149640000Y-87880000D01*
X149240000Y-84880000D02*
X147290000Y-84880000D01*
X149740000Y-88380000D02*
X149740000Y-87880000D01*
X152190000Y-88380000D02*
X152190000Y-84880000D01*
X146680000Y-88990000D02*
X152800000Y-88990000D01*
X152800000Y-85580000D02*
X152190000Y-85580000D01*
X147630000Y-83970000D02*
X146380000Y-83970000D01*
X149240000Y-84270000D02*
X149240000Y-84880000D01*
X146680000Y-85580000D02*
X147290000Y-85580000D01*
X146380000Y-83970000D02*
X146380000Y-85220000D01*
X152800000Y-86880000D02*
X152190000Y-86880000D01*
X149840000Y-87880000D02*
X149840000Y-88380000D01*
X148140000Y-84070000D02*
X148140000Y-84270000D01*
X149640000Y-87880000D02*
X149840000Y-87880000D01*
X147290000Y-88380000D02*
X152190000Y-88380000D01*
X146680000Y-86880000D02*
X147290000Y-86880000D01*
X147290000Y-84880000D02*
X147290000Y-88380000D01*
G04 #@! TO.C,D1*
X144185000Y-98385000D02*
X147275000Y-98385000D01*
X147274830Y-98385000D02*
G75*
G03*
X145729538Y-92835000I-1544830J2560000D01*
G01*
X145730462Y-92835000D02*
G75*
G03*
X144185170Y-98385000I-462J-2990000D01*
G01*
X148230000Y-95825000D02*
G75*
G03*
X148230000Y-95825000I-2500000J0D01*
G01*
G04 #@! TO.C,C1*
X156160000Y-95560000D02*
G75*
G03*
X156160000Y-95560000I-2620000J0D01*
G01*
G04 #@! TO.C,R2*
X162890000Y-69860000D02*
X147150000Y-69860000D01*
X162890000Y-75100000D02*
X162890000Y-69860000D01*
X163740000Y-72480000D02*
X162890000Y-72480000D01*
X146300000Y-72480000D02*
X147150000Y-72480000D01*
X147150000Y-69860000D02*
X147150000Y-75100000D01*
X147150000Y-75100000D02*
X162890000Y-75100000D01*
G04 #@! TO.C,G\u002A\u002A\u002A*
G36*
X148233761Y-100026733D02*
G01*
X148556351Y-100033035D01*
X148852348Y-101232474D01*
X148908241Y-101458050D01*
X148961144Y-101669798D01*
X149010025Y-101863703D01*
X149053851Y-102035752D01*
X149091589Y-102181932D01*
X149122207Y-102298230D01*
X149144671Y-102380631D01*
X149157949Y-102425122D01*
X149160992Y-102431982D01*
X149168847Y-102410960D01*
X149186805Y-102351654D01*
X149213323Y-102259743D01*
X149246859Y-102140906D01*
X149285869Y-102000822D01*
X149328810Y-101845169D01*
X149374140Y-101679627D01*
X149420314Y-101509874D01*
X149465790Y-101341588D01*
X149509026Y-101180449D01*
X149548477Y-101032136D01*
X149582600Y-100902327D01*
X149609854Y-100796701D01*
X149628693Y-100720936D01*
X149637577Y-100680712D01*
X149638065Y-100676279D01*
X149616620Y-100668574D01*
X149559762Y-100661317D01*
X149477550Y-100655590D01*
X149426903Y-100653539D01*
X149216562Y-100647001D01*
X149210236Y-100334333D01*
X149203909Y-100021666D01*
X150592301Y-100021666D01*
X150592301Y-100658371D01*
X150388079Y-100658371D01*
X150291207Y-100658830D01*
X150230389Y-100661994D01*
X150196200Y-100670549D01*
X150179214Y-100687176D01*
X150170006Y-100714560D01*
X150168430Y-100720905D01*
X150159998Y-100753607D01*
X150141016Y-100826297D01*
X150112531Y-100934987D01*
X150075591Y-101075690D01*
X150031244Y-101244419D01*
X149980539Y-101437187D01*
X149924523Y-101650005D01*
X149864244Y-101878888D01*
X149800751Y-102119846D01*
X149796378Y-102136437D01*
X149439751Y-103489436D01*
X148941366Y-103495542D01*
X148442981Y-103501647D01*
X148240494Y-102688290D01*
X148193476Y-102499653D01*
X148149126Y-102322149D01*
X148108832Y-102161301D01*
X148073981Y-102022632D01*
X148045961Y-101911663D01*
X148026161Y-101833917D01*
X148016085Y-101795345D01*
X148009598Y-101777689D01*
X148001887Y-101772680D01*
X147991776Y-101783985D01*
X147978084Y-101815271D01*
X147959636Y-101870206D01*
X147935252Y-101952455D01*
X147903755Y-102065686D01*
X147863967Y-102213566D01*
X147814710Y-102399761D01*
X147782321Y-102523008D01*
X147732930Y-102710957D01*
X147686254Y-102888083D01*
X147643770Y-103048814D01*
X147606956Y-103187582D01*
X147577289Y-103298814D01*
X147556248Y-103376942D01*
X147545562Y-103415533D01*
X147520645Y-103500806D01*
X146527613Y-103500806D01*
X146193993Y-102164862D01*
X146133709Y-101923541D01*
X146076186Y-101693435D01*
X146022460Y-101478671D01*
X145973564Y-101283373D01*
X145930532Y-101111669D01*
X145894397Y-100967683D01*
X145866195Y-100855541D01*
X145846959Y-100779370D01*
X145837816Y-100743644D01*
X145815257Y-100658371D01*
X145407699Y-100658371D01*
X145407699Y-100021666D01*
X147249597Y-100021666D01*
X147249597Y-100658371D01*
X147019770Y-100658371D01*
X146910871Y-100659783D01*
X146841741Y-100664506D01*
X146806743Y-100673270D01*
X146800236Y-100686795D01*
X146807853Y-100714538D01*
X146825164Y-100781474D01*
X146850921Y-100882653D01*
X146883873Y-101013126D01*
X146922773Y-101167943D01*
X146966370Y-101342155D01*
X147013415Y-101530811D01*
X147024072Y-101573635D01*
X147071582Y-101763450D01*
X147116006Y-101938703D01*
X147156102Y-102094652D01*
X147190625Y-102226558D01*
X147218332Y-102329679D01*
X147237978Y-102399275D01*
X147248319Y-102430604D01*
X147249290Y-102431903D01*
X147257276Y-102410589D01*
X147275765Y-102349482D01*
X147303599Y-102252749D01*
X147339618Y-102124556D01*
X147382663Y-101969067D01*
X147431575Y-101790450D01*
X147485195Y-101592869D01*
X147542362Y-101380492D01*
X147554623Y-101334723D01*
X147613392Y-101115352D01*
X147669501Y-100906246D01*
X147721674Y-100712134D01*
X147768637Y-100537745D01*
X147809114Y-100387809D01*
X147841830Y-100267057D01*
X147865509Y-100180216D01*
X147878876Y-100132017D01*
X147879725Y-100129060D01*
X147911171Y-100020430D01*
X148233761Y-100026733D01*
G37*
G04 #@! TD*
M02*
