G04 #@! TF.GenerationSoftware,KiCad,Pcbnew,(6.0.4)*
G04 #@! TF.CreationDate,2023-02-21T11:49:36-08:00*
G04 #@! TF.ProjectId,Lab4_Exercise,4c616234-5f45-4786-9572-636973652e6b,rev?*
G04 #@! TF.SameCoordinates,Original*
G04 #@! TF.FileFunction,Copper,L2,Bot*
G04 #@! TF.FilePolarity,Positive*
%FSLAX46Y46*%
G04 Gerber Fmt 4.6, Leading zero omitted, Abs format (unit mm)*
G04 Created by KiCad (PCBNEW (6.0.4)) date 2023-02-21 11:49:36*
%MOMM*%
%LPD*%
G01*
G04 APERTURE LIST*
G04 Aperture macros list*
%AMRoundRect*
0 Rectangle with rounded corners*
0 $1 Rounding radius*
0 $2 $3 $4 $5 $6 $7 $8 $9 X,Y pos of 4 corners*
0 Add a 4 corners polygon primitive as box body*
4,1,4,$2,$3,$4,$5,$6,$7,$8,$9,$2,$3,0*
0 Add four circle primitives for the rounded corners*
1,1,$1+$1,$2,$3*
1,1,$1+$1,$4,$5*
1,1,$1+$1,$6,$7*
1,1,$1+$1,$8,$9*
0 Add four rect primitives between the rounded corners*
20,1,$1+$1,$2,$3,$4,$5,0*
20,1,$1+$1,$4,$5,$6,$7,0*
20,1,$1+$1,$6,$7,$8,$9,0*
20,1,$1+$1,$8,$9,$2,$3,0*%
G04 Aperture macros list end*
G04 #@! TA.AperFunction,ComponentPad*
%ADD10C,2.000000*%
G04 #@! TD*
G04 #@! TA.AperFunction,ComponentPad*
%ADD11C,1.700000*%
G04 #@! TD*
G04 #@! TA.AperFunction,ComponentPad*
%ADD12C,2.400000*%
G04 #@! TD*
G04 #@! TA.AperFunction,ComponentPad*
%ADD13O,2.400000X2.400000*%
G04 #@! TD*
G04 #@! TA.AperFunction,ComponentPad*
%ADD14RoundRect,0.250000X-0.350000X-0.625000X0.350000X-0.625000X0.350000X0.625000X-0.350000X0.625000X0*%
G04 #@! TD*
G04 #@! TA.AperFunction,ComponentPad*
%ADD15O,1.200000X1.750000*%
G04 #@! TD*
G04 #@! TA.AperFunction,ComponentPad*
%ADD16R,1.800000X1.800000*%
G04 #@! TD*
G04 #@! TA.AperFunction,ComponentPad*
%ADD17C,1.800000*%
G04 #@! TD*
G04 #@! TA.AperFunction,ComponentPad*
%ADD18C,1.200000*%
G04 #@! TD*
G04 APERTURE END LIST*
D10*
G04 #@! TO.P,SW1,*
G04 #@! TO.N,*
X168140000Y-91140000D03*
X156140000Y-91140000D03*
X168140000Y-85140000D03*
X156140000Y-85140000D03*
D11*
G04 #@! TO.P,SW1,1,A*
G04 #@! TO.N,unconnected-(SW1-Pad1)*
X158140000Y-86890000D03*
G04 #@! TO.P,SW1,2,B*
G04 #@! TO.N,Net-(R1-Pad2)*
X162140000Y-86890000D03*
G04 #@! TO.P,SW1,3,C*
G04 #@! TO.N,Net-(C1-Pad1)*
X166140000Y-86890000D03*
G04 #@! TD*
D12*
G04 #@! TO.P,R1,1*
G04 #@! TO.N,+9V*
X144490000Y-78920000D03*
D13*
G04 #@! TO.P,R1,2*
G04 #@! TO.N,Net-(R1-Pad2)*
X164810000Y-78920000D03*
G04 #@! TD*
D14*
G04 #@! TO.P,J1,1,Pin_1*
G04 #@! TO.N,+9V*
X148740000Y-86080000D03*
D15*
G04 #@! TO.P,J1,2,Pin_2*
G04 #@! TO.N,GND*
X150740000Y-86080000D03*
G04 #@! TD*
D16*
G04 #@! TO.P,D1,1,K*
G04 #@! TO.N,GND*
X145730000Y-97095000D03*
D17*
G04 #@! TO.P,D1,2,A*
G04 #@! TO.N,Net-(D1-Pad2)*
X145730000Y-94555000D03*
G04 #@! TD*
D18*
G04 #@! TO.P,C1,1*
G04 #@! TO.N,Net-(C1-Pad1)*
X153540000Y-96560000D03*
G04 #@! TO.P,C1,2*
G04 #@! TO.N,GND*
X153540000Y-94560000D03*
G04 #@! TD*
D12*
G04 #@! TO.P,R2,1*
G04 #@! TO.N,Net-(D1-Pad2)*
X144860000Y-72480000D03*
D13*
G04 #@! TO.P,R2,2*
G04 #@! TO.N,Net-(C1-Pad1)*
X165180000Y-72480000D03*
G04 #@! TD*
G04 #@! TA.AperFunction,Conductor*
G04 #@! TO.N,GND*
G36*
X168038707Y-68600002D02*
G01*
X168085200Y-68653658D01*
X168095930Y-68718841D01*
X168073326Y-68939452D01*
X168073501Y-68943904D01*
X168075705Y-69000000D01*
X168080461Y-69121037D01*
X168084016Y-69211527D01*
X168132935Y-69479381D01*
X168134344Y-69483604D01*
X168190846Y-69652960D01*
X168219107Y-69737670D01*
X168221099Y-69741657D01*
X168221100Y-69741659D01*
X168299183Y-69897927D01*
X168340812Y-69981241D01*
X168495623Y-70205233D01*
X168680450Y-70405178D01*
X168891606Y-70577086D01*
X168895414Y-70579379D01*
X168895416Y-70579380D01*
X169121061Y-70715229D01*
X169121065Y-70715231D01*
X169124877Y-70717526D01*
X169250064Y-70770536D01*
X169371506Y-70821961D01*
X169371511Y-70821963D01*
X169375609Y-70823698D01*
X169379906Y-70824837D01*
X169379911Y-70824839D01*
X169507204Y-70858590D01*
X169638799Y-70893481D01*
X169909196Y-70925485D01*
X170181406Y-70919070D01*
X170185800Y-70918339D01*
X170185807Y-70918338D01*
X170445593Y-70875098D01*
X170445597Y-70875097D01*
X170449995Y-70874365D01*
X170709606Y-70792260D01*
X170713617Y-70790334D01*
X170713622Y-70790332D01*
X170951041Y-70676326D01*
X170951048Y-70676322D01*
X170955059Y-70674396D01*
X171068884Y-70598341D01*
X171177747Y-70525601D01*
X171177751Y-70525598D01*
X171181455Y-70523123D01*
X171384278Y-70341459D01*
X171559481Y-70133030D01*
X171703569Y-69901993D01*
X171813665Y-69652960D01*
X171887574Y-69390898D01*
X171890598Y-69368387D01*
X171923394Y-69124219D01*
X171923395Y-69124211D01*
X171923821Y-69121037D01*
X171927625Y-69000000D01*
X171908394Y-68728395D01*
X171907457Y-68724044D01*
X171907415Y-68723747D01*
X171917623Y-68653488D01*
X171964196Y-68599901D01*
X172032159Y-68580000D01*
X172085500Y-68580000D01*
X172153621Y-68600002D01*
X172200114Y-68653658D01*
X172211500Y-68706000D01*
X172211500Y-101474000D01*
X172191498Y-101542121D01*
X172137842Y-101588614D01*
X172085500Y-101600000D01*
X171982512Y-101600000D01*
X171914391Y-101579998D01*
X171867898Y-101526342D01*
X171859335Y-101500520D01*
X171852025Y-101466568D01*
X171852022Y-101466558D01*
X171851086Y-101462210D01*
X171756844Y-101206755D01*
X171720078Y-101138615D01*
X171629661Y-100971043D01*
X171627548Y-100967127D01*
X171465778Y-100748108D01*
X171424505Y-100706181D01*
X171277892Y-100557248D01*
X171274761Y-100554067D01*
X171058310Y-100388877D01*
X170820743Y-100255833D01*
X170814690Y-100253491D01*
X170570954Y-100159196D01*
X170570948Y-100159194D01*
X170566799Y-100157589D01*
X170562467Y-100156585D01*
X170562464Y-100156584D01*
X170453710Y-100131376D01*
X170301547Y-100096107D01*
X170030278Y-100072613D01*
X170025843Y-100072857D01*
X170025839Y-100072857D01*
X169762848Y-100087330D01*
X169762841Y-100087331D01*
X169758405Y-100087575D01*
X169625871Y-100113938D01*
X169495724Y-100139825D01*
X169495719Y-100139826D01*
X169491352Y-100140695D01*
X169487149Y-100142171D01*
X169238656Y-100229435D01*
X169238653Y-100229436D01*
X169234448Y-100230913D01*
X169230495Y-100232966D01*
X169230489Y-100232969D01*
X169094309Y-100303710D01*
X168992819Y-100356430D01*
X168947414Y-100388877D01*
X168774907Y-100512151D01*
X168774903Y-100512154D01*
X168771286Y-100514739D01*
X168574269Y-100702684D01*
X168571513Y-100706179D01*
X168571512Y-100706181D01*
X168535628Y-100751700D01*
X168405699Y-100916514D01*
X168378381Y-100963545D01*
X168271174Y-101148115D01*
X168271171Y-101148121D01*
X168268940Y-101151962D01*
X168267270Y-101156085D01*
X168168393Y-101400199D01*
X168168390Y-101400207D01*
X168166720Y-101404331D01*
X168150995Y-101467635D01*
X168141869Y-101504375D01*
X168106035Y-101565665D01*
X168042753Y-101597852D01*
X168019585Y-101600000D01*
X143982512Y-101600000D01*
X143914391Y-101579998D01*
X143867898Y-101526342D01*
X143859335Y-101500520D01*
X143852025Y-101466568D01*
X143852022Y-101466558D01*
X143851086Y-101462210D01*
X143756844Y-101206755D01*
X143720078Y-101138615D01*
X143629661Y-100971043D01*
X143627548Y-100967127D01*
X143465778Y-100748108D01*
X143424505Y-100706181D01*
X143277892Y-100557248D01*
X143274761Y-100554067D01*
X143058310Y-100388877D01*
X142820743Y-100255833D01*
X142814690Y-100253491D01*
X142570954Y-100159196D01*
X142570948Y-100159194D01*
X142566799Y-100157589D01*
X142562467Y-100156585D01*
X142562464Y-100156584D01*
X142453710Y-100131376D01*
X142301547Y-100096107D01*
X142030278Y-100072613D01*
X142025843Y-100072857D01*
X142025839Y-100072857D01*
X141762848Y-100087330D01*
X141762841Y-100087331D01*
X141758405Y-100087575D01*
X141625871Y-100113938D01*
X141495724Y-100139825D01*
X141495719Y-100139826D01*
X141491352Y-100140695D01*
X141487149Y-100142171D01*
X141238656Y-100229435D01*
X141238653Y-100229436D01*
X141234448Y-100230913D01*
X141230495Y-100232966D01*
X141230489Y-100232969D01*
X141094309Y-100303710D01*
X140992819Y-100356430D01*
X140947414Y-100388877D01*
X140774907Y-100512151D01*
X140774903Y-100512154D01*
X140771286Y-100514739D01*
X140574269Y-100702684D01*
X140571513Y-100706179D01*
X140571512Y-100706181D01*
X140433450Y-100881312D01*
X140375569Y-100922425D01*
X140304649Y-100925719D01*
X140243206Y-100890147D01*
X140210749Y-100827004D01*
X140208500Y-100803306D01*
X140208500Y-98039669D01*
X144322001Y-98039669D01*
X144322371Y-98046490D01*
X144327895Y-98097352D01*
X144331521Y-98112604D01*
X144376676Y-98233054D01*
X144385214Y-98248649D01*
X144461715Y-98350724D01*
X144474276Y-98363285D01*
X144576351Y-98439786D01*
X144591946Y-98448324D01*
X144712394Y-98493478D01*
X144727649Y-98497105D01*
X144778514Y-98502631D01*
X144785328Y-98503000D01*
X145457885Y-98503000D01*
X145473124Y-98498525D01*
X145474329Y-98497135D01*
X145476000Y-98489452D01*
X145476000Y-98484884D01*
X145984000Y-98484884D01*
X145988475Y-98500123D01*
X145989865Y-98501328D01*
X145997548Y-98502999D01*
X146674669Y-98502999D01*
X146681490Y-98502629D01*
X146732352Y-98497105D01*
X146747604Y-98493479D01*
X146868054Y-98448324D01*
X146883649Y-98439786D01*
X146985724Y-98363285D01*
X146998285Y-98350724D01*
X147074786Y-98248649D01*
X147083324Y-98233054D01*
X147128478Y-98112606D01*
X147132105Y-98097351D01*
X147137631Y-98046486D01*
X147138000Y-98039672D01*
X147138000Y-97367115D01*
X147133525Y-97351876D01*
X147132135Y-97350671D01*
X147124452Y-97349000D01*
X146002115Y-97349000D01*
X145986876Y-97353475D01*
X145985671Y-97354865D01*
X145984000Y-97362548D01*
X145984000Y-98484884D01*
X145476000Y-98484884D01*
X145476000Y-97367115D01*
X145471525Y-97351876D01*
X145470135Y-97350671D01*
X145462452Y-97349000D01*
X144340116Y-97349000D01*
X144324877Y-97353475D01*
X144323672Y-97354865D01*
X144322001Y-97362548D01*
X144322001Y-98039669D01*
X140208500Y-98039669D01*
X140208500Y-94520469D01*
X144317095Y-94520469D01*
X144317392Y-94525622D01*
X144317392Y-94525625D01*
X144322944Y-94621911D01*
X144330427Y-94751697D01*
X144331564Y-94756743D01*
X144331565Y-94756749D01*
X144363741Y-94899523D01*
X144381346Y-94977642D01*
X144383288Y-94982424D01*
X144383289Y-94982428D01*
X144443664Y-95131113D01*
X144468484Y-95192237D01*
X144589501Y-95389719D01*
X144592882Y-95393622D01*
X144701653Y-95519191D01*
X144731135Y-95583776D01*
X144721020Y-95654049D01*
X144674519Y-95707697D01*
X144650646Y-95719670D01*
X144591944Y-95741677D01*
X144576351Y-95750214D01*
X144474276Y-95826715D01*
X144461715Y-95839276D01*
X144385214Y-95941351D01*
X144376676Y-95956946D01*
X144331522Y-96077394D01*
X144327895Y-96092649D01*
X144322369Y-96143514D01*
X144322000Y-96150328D01*
X144322000Y-96822885D01*
X144326475Y-96838124D01*
X144327865Y-96839329D01*
X144335548Y-96841000D01*
X147119884Y-96841000D01*
X147135123Y-96836525D01*
X147136328Y-96835135D01*
X147137999Y-96827452D01*
X147137999Y-96530859D01*
X152427132Y-96530859D01*
X152440457Y-96734151D01*
X152490605Y-96931610D01*
X152575898Y-97116624D01*
X152693479Y-97282997D01*
X152839410Y-97425157D01*
X152844206Y-97428362D01*
X152844209Y-97428364D01*
X152912149Y-97473760D01*
X153008803Y-97538342D01*
X153014106Y-97540620D01*
X153014109Y-97540622D01*
X153103115Y-97578862D01*
X153195987Y-97618763D01*
X153268817Y-97635243D01*
X153389055Y-97662450D01*
X153389060Y-97662451D01*
X153394692Y-97663725D01*
X153400463Y-97663952D01*
X153400465Y-97663952D01*
X153463470Y-97666427D01*
X153598263Y-97671723D01*
X153799883Y-97642490D01*
X153805347Y-97640635D01*
X153805352Y-97640634D01*
X153987327Y-97578862D01*
X153987332Y-97578860D01*
X153992799Y-97577004D01*
X154170551Y-97477458D01*
X154327186Y-97347186D01*
X154457458Y-97190551D01*
X154557004Y-97012799D01*
X154558860Y-97007332D01*
X154558862Y-97007327D01*
X154620634Y-96825352D01*
X154620635Y-96825347D01*
X154622490Y-96819883D01*
X154651723Y-96618263D01*
X154653249Y-96560000D01*
X154634608Y-96357126D01*
X154579307Y-96161047D01*
X154574023Y-96150331D01*
X154491756Y-95983510D01*
X154489201Y-95978329D01*
X154470796Y-95953681D01*
X154370758Y-95819715D01*
X154370758Y-95819714D01*
X154367305Y-95815091D01*
X154264104Y-95719693D01*
X154221943Y-95680719D01*
X154221940Y-95680717D01*
X154217703Y-95676800D01*
X154172113Y-95648035D01*
X154125176Y-95594769D01*
X154114487Y-95524582D01*
X154115950Y-95516010D01*
X154118535Y-95503483D01*
X154114940Y-95494151D01*
X153552811Y-94932021D01*
X153538868Y-94924408D01*
X153537034Y-94924539D01*
X153530420Y-94928790D01*
X152969259Y-95489952D01*
X152961648Y-95503890D01*
X152963667Y-95532117D01*
X152948575Y-95601492D01*
X152902409Y-95649392D01*
X152885649Y-95659363D01*
X152732478Y-95793690D01*
X152728911Y-95798215D01*
X152728906Y-95798220D01*
X152671621Y-95870886D01*
X152606351Y-95953681D01*
X152511492Y-96133978D01*
X152451078Y-96328543D01*
X152427132Y-96530859D01*
X147137999Y-96530859D01*
X147137999Y-96150331D01*
X147137629Y-96143510D01*
X147132105Y-96092648D01*
X147128479Y-96077396D01*
X147083324Y-95956946D01*
X147074786Y-95941351D01*
X146998285Y-95839276D01*
X146985724Y-95826715D01*
X146883649Y-95750214D01*
X146868052Y-95741675D01*
X146809415Y-95719693D01*
X146752650Y-95677052D01*
X146727950Y-95610490D01*
X146743157Y-95541141D01*
X146764703Y-95512461D01*
X146802641Y-95474654D01*
X146806303Y-95471005D01*
X146941458Y-95282917D01*
X146988641Y-95187450D01*
X147041784Y-95079922D01*
X147041785Y-95079920D01*
X147044078Y-95075280D01*
X147111408Y-94853671D01*
X147141640Y-94624041D01*
X147141722Y-94620691D01*
X147143245Y-94558365D01*
X147143245Y-94558361D01*
X147143327Y-94555000D01*
X147141817Y-94536638D01*
X152428012Y-94536638D01*
X152440575Y-94728304D01*
X152442376Y-94739674D01*
X152489657Y-94925843D01*
X152493498Y-94936690D01*
X152573916Y-95111130D01*
X152579664Y-95121086D01*
X152585788Y-95129751D01*
X152596377Y-95138140D01*
X152609676Y-95131113D01*
X153167979Y-94572811D01*
X153174356Y-94561132D01*
X153904408Y-94561132D01*
X153904539Y-94562966D01*
X153908790Y-94569580D01*
X154470239Y-95131028D01*
X154482614Y-95137785D01*
X154489194Y-95132859D01*
X154553726Y-95017628D01*
X154558400Y-95007131D01*
X154620144Y-94825240D01*
X154622832Y-94814045D01*
X154650689Y-94621911D01*
X154651319Y-94614528D01*
X154652650Y-94563704D01*
X154652407Y-94556305D01*
X154634643Y-94362975D01*
X154632545Y-94351654D01*
X154580408Y-94166791D01*
X154576283Y-94156044D01*
X154492163Y-93985465D01*
X154484869Y-93979990D01*
X154472449Y-93986762D01*
X153912021Y-94547189D01*
X153904408Y-94561132D01*
X153174356Y-94561132D01*
X153175592Y-94558868D01*
X153175461Y-94557034D01*
X153171210Y-94550420D01*
X152608538Y-93987749D01*
X152596163Y-93980992D01*
X152590197Y-93985458D01*
X152514645Y-94129058D01*
X152510242Y-94139691D01*
X152453281Y-94323132D01*
X152450891Y-94334376D01*
X152428313Y-94525137D01*
X152428012Y-94536638D01*
X147141817Y-94536638D01*
X147126609Y-94351654D01*
X147124773Y-94329318D01*
X147124772Y-94329312D01*
X147124349Y-94324167D01*
X147067925Y-94099533D01*
X147065866Y-94094797D01*
X146977630Y-93891868D01*
X146977628Y-93891865D01*
X146975570Y-93887131D01*
X146849764Y-93692665D01*
X146782438Y-93618675D01*
X152962788Y-93618675D01*
X152966275Y-93627064D01*
X153527189Y-94187979D01*
X153541132Y-94195592D01*
X153542966Y-94195461D01*
X153549580Y-94191210D01*
X154110285Y-93630504D01*
X154117042Y-93618129D01*
X154111012Y-93610073D01*
X154050061Y-93571616D01*
X154039813Y-93566395D01*
X153861401Y-93495216D01*
X153850373Y-93491949D01*
X153661982Y-93454476D01*
X153650535Y-93453273D01*
X153458477Y-93450759D01*
X153446997Y-93451662D01*
X153257697Y-93484190D01*
X153246577Y-93487170D01*
X153066365Y-93553653D01*
X153055991Y-93558601D01*
X152972385Y-93608342D01*
X152962788Y-93618675D01*
X146782438Y-93618675D01*
X146693887Y-93521358D01*
X146689836Y-93518159D01*
X146689832Y-93518155D01*
X146516177Y-93381011D01*
X146516172Y-93381008D01*
X146512123Y-93377810D01*
X146507607Y-93375317D01*
X146507604Y-93375315D01*
X146313879Y-93268373D01*
X146313875Y-93268371D01*
X146309355Y-93265876D01*
X146304486Y-93264152D01*
X146304482Y-93264150D01*
X146095903Y-93190288D01*
X146095899Y-93190287D01*
X146091028Y-93188562D01*
X146085935Y-93187655D01*
X146085932Y-93187654D01*
X145868095Y-93148851D01*
X145868089Y-93148850D01*
X145863006Y-93147945D01*
X145790096Y-93147054D01*
X145636581Y-93145179D01*
X145636579Y-93145179D01*
X145631411Y-93145116D01*
X145402464Y-93180150D01*
X145182314Y-93252106D01*
X145177726Y-93254494D01*
X145177722Y-93254496D01*
X145151065Y-93268373D01*
X144976872Y-93359052D01*
X144972739Y-93362155D01*
X144972736Y-93362157D01*
X144849779Y-93454476D01*
X144791655Y-93498117D01*
X144631639Y-93665564D01*
X144628725Y-93669836D01*
X144628724Y-93669837D01*
X144613152Y-93692665D01*
X144501119Y-93856899D01*
X144403602Y-94066981D01*
X144341707Y-94290169D01*
X144317095Y-94520469D01*
X140208500Y-94520469D01*
X140208500Y-91140000D01*
X154626835Y-91140000D01*
X154645465Y-91376711D01*
X154700895Y-91607594D01*
X154791760Y-91826963D01*
X154794346Y-91831183D01*
X154913241Y-92025202D01*
X154913245Y-92025208D01*
X154915824Y-92029416D01*
X155070031Y-92209969D01*
X155250584Y-92364176D01*
X155254792Y-92366755D01*
X155254798Y-92366759D01*
X155448817Y-92485654D01*
X155453037Y-92488240D01*
X155457607Y-92490133D01*
X155457611Y-92490135D01*
X155667833Y-92577211D01*
X155672406Y-92579105D01*
X155752609Y-92598360D01*
X155898476Y-92633380D01*
X155898482Y-92633381D01*
X155903289Y-92634535D01*
X156140000Y-92653165D01*
X156376711Y-92634535D01*
X156381518Y-92633381D01*
X156381524Y-92633380D01*
X156527391Y-92598360D01*
X156607594Y-92579105D01*
X156612167Y-92577211D01*
X156822389Y-92490135D01*
X156822393Y-92490133D01*
X156826963Y-92488240D01*
X156831183Y-92485654D01*
X157025202Y-92366759D01*
X157025208Y-92366755D01*
X157029416Y-92364176D01*
X157209969Y-92209969D01*
X157364176Y-92029416D01*
X157366755Y-92025208D01*
X157366759Y-92025202D01*
X157485654Y-91831183D01*
X157488240Y-91826963D01*
X157579105Y-91607594D01*
X157634535Y-91376711D01*
X157653165Y-91140000D01*
X166626835Y-91140000D01*
X166645465Y-91376711D01*
X166700895Y-91607594D01*
X166791760Y-91826963D01*
X166794346Y-91831183D01*
X166913241Y-92025202D01*
X166913245Y-92025208D01*
X166915824Y-92029416D01*
X167070031Y-92209969D01*
X167250584Y-92364176D01*
X167254792Y-92366755D01*
X167254798Y-92366759D01*
X167448817Y-92485654D01*
X167453037Y-92488240D01*
X167457607Y-92490133D01*
X167457611Y-92490135D01*
X167667833Y-92577211D01*
X167672406Y-92579105D01*
X167752609Y-92598360D01*
X167898476Y-92633380D01*
X167898482Y-92633381D01*
X167903289Y-92634535D01*
X168140000Y-92653165D01*
X168376711Y-92634535D01*
X168381518Y-92633381D01*
X168381524Y-92633380D01*
X168527391Y-92598360D01*
X168607594Y-92579105D01*
X168612167Y-92577211D01*
X168822389Y-92490135D01*
X168822393Y-92490133D01*
X168826963Y-92488240D01*
X168831183Y-92485654D01*
X169025202Y-92366759D01*
X169025208Y-92366755D01*
X169029416Y-92364176D01*
X169209969Y-92209969D01*
X169364176Y-92029416D01*
X169366755Y-92025208D01*
X169366759Y-92025202D01*
X169485654Y-91831183D01*
X169488240Y-91826963D01*
X169579105Y-91607594D01*
X169634535Y-91376711D01*
X169653165Y-91140000D01*
X169634535Y-90903289D01*
X169579105Y-90672406D01*
X169488240Y-90453037D01*
X169485654Y-90448817D01*
X169366759Y-90254798D01*
X169366755Y-90254792D01*
X169364176Y-90250584D01*
X169209969Y-90070031D01*
X169029416Y-89915824D01*
X169025208Y-89913245D01*
X169025202Y-89913241D01*
X168831183Y-89794346D01*
X168826963Y-89791760D01*
X168822393Y-89789867D01*
X168822389Y-89789865D01*
X168612167Y-89702789D01*
X168612165Y-89702788D01*
X168607594Y-89700895D01*
X168527391Y-89681640D01*
X168381524Y-89646620D01*
X168381518Y-89646619D01*
X168376711Y-89645465D01*
X168140000Y-89626835D01*
X167903289Y-89645465D01*
X167898482Y-89646619D01*
X167898476Y-89646620D01*
X167752609Y-89681640D01*
X167672406Y-89700895D01*
X167667835Y-89702788D01*
X167667833Y-89702789D01*
X167457611Y-89789865D01*
X167457607Y-89789867D01*
X167453037Y-89791760D01*
X167448817Y-89794346D01*
X167254798Y-89913241D01*
X167254792Y-89913245D01*
X167250584Y-89915824D01*
X167070031Y-90070031D01*
X166915824Y-90250584D01*
X166913245Y-90254792D01*
X166913241Y-90254798D01*
X166794346Y-90448817D01*
X166791760Y-90453037D01*
X166700895Y-90672406D01*
X166645465Y-90903289D01*
X166626835Y-91140000D01*
X157653165Y-91140000D01*
X157634535Y-90903289D01*
X157579105Y-90672406D01*
X157488240Y-90453037D01*
X157485654Y-90448817D01*
X157366759Y-90254798D01*
X157366755Y-90254792D01*
X157364176Y-90250584D01*
X157209969Y-90070031D01*
X157029416Y-89915824D01*
X157025208Y-89913245D01*
X157025202Y-89913241D01*
X156831183Y-89794346D01*
X156826963Y-89791760D01*
X156822393Y-89789867D01*
X156822389Y-89789865D01*
X156612167Y-89702789D01*
X156612165Y-89702788D01*
X156607594Y-89700895D01*
X156527391Y-89681640D01*
X156381524Y-89646620D01*
X156381518Y-89646619D01*
X156376711Y-89645465D01*
X156140000Y-89626835D01*
X155903289Y-89645465D01*
X155898482Y-89646619D01*
X155898476Y-89646620D01*
X155752609Y-89681640D01*
X155672406Y-89700895D01*
X155667835Y-89702788D01*
X155667833Y-89702789D01*
X155457611Y-89789865D01*
X155457607Y-89789867D01*
X155453037Y-89791760D01*
X155448817Y-89794346D01*
X155254798Y-89913241D01*
X155254792Y-89913245D01*
X155250584Y-89915824D01*
X155070031Y-90070031D01*
X154915824Y-90250584D01*
X154913245Y-90254792D01*
X154913241Y-90254798D01*
X154794346Y-90448817D01*
X154791760Y-90453037D01*
X154700895Y-90672406D01*
X154645465Y-90903289D01*
X154626835Y-91140000D01*
X140208500Y-91140000D01*
X140208500Y-86755400D01*
X147631500Y-86755400D01*
X147631837Y-86758646D01*
X147631837Y-86758650D01*
X147641478Y-86851562D01*
X147642474Y-86861166D01*
X147698450Y-87028946D01*
X147791522Y-87179348D01*
X147916697Y-87304305D01*
X147922927Y-87308145D01*
X147922928Y-87308146D01*
X148060090Y-87392694D01*
X148067262Y-87397115D01*
X148122396Y-87415402D01*
X148228611Y-87450632D01*
X148228613Y-87450632D01*
X148235139Y-87452797D01*
X148241975Y-87453497D01*
X148241978Y-87453498D01*
X148285031Y-87457909D01*
X148339600Y-87463500D01*
X149140400Y-87463500D01*
X149143646Y-87463163D01*
X149143650Y-87463163D01*
X149239308Y-87453238D01*
X149239312Y-87453237D01*
X149246166Y-87452526D01*
X149252702Y-87450345D01*
X149252704Y-87450345D01*
X149388867Y-87404917D01*
X149413946Y-87396550D01*
X149564348Y-87303478D01*
X149689305Y-87178303D01*
X149693148Y-87172069D01*
X149721355Y-87126310D01*
X149774127Y-87078817D01*
X149844199Y-87067395D01*
X149909323Y-87095669D01*
X149927702Y-87114597D01*
X149930262Y-87117856D01*
X149938499Y-87126506D01*
X150089123Y-87257212D01*
X150098847Y-87264147D01*
X150271467Y-87364010D01*
X150282331Y-87368984D01*
X150470727Y-87434407D01*
X150471716Y-87434648D01*
X150482008Y-87433180D01*
X150486000Y-87419615D01*
X150486000Y-87415402D01*
X150994000Y-87415402D01*
X150997973Y-87428933D01*
X151007399Y-87430288D01*
X151096537Y-87408806D01*
X151107832Y-87404917D01*
X151289382Y-87322371D01*
X151299724Y-87316424D01*
X151462397Y-87201032D01*
X151471425Y-87193239D01*
X151609342Y-87049169D01*
X151616738Y-87039804D01*
X151724921Y-86872259D01*
X151730417Y-86861655D01*
X151804961Y-86676688D01*
X151808355Y-86665230D01*
X151846857Y-86468072D01*
X151847934Y-86459209D01*
X151848000Y-86456500D01*
X151848000Y-86352115D01*
X151843525Y-86336876D01*
X151842135Y-86335671D01*
X151834452Y-86334000D01*
X151012115Y-86334000D01*
X150996876Y-86338475D01*
X150995671Y-86339865D01*
X150994000Y-86347548D01*
X150994000Y-87415402D01*
X150486000Y-87415402D01*
X150486000Y-85807885D01*
X150994000Y-85807885D01*
X150998475Y-85823124D01*
X150999865Y-85824329D01*
X151007548Y-85826000D01*
X151829885Y-85826000D01*
X151845124Y-85821525D01*
X151846329Y-85820135D01*
X151848000Y-85812452D01*
X151848000Y-85755168D01*
X151847715Y-85749192D01*
X151833529Y-85600506D01*
X151831270Y-85588772D01*
X151775128Y-85397401D01*
X151770698Y-85386325D01*
X151679381Y-85209022D01*
X151672931Y-85198976D01*
X151626605Y-85140000D01*
X154626835Y-85140000D01*
X154645465Y-85376711D01*
X154646619Y-85381518D01*
X154646620Y-85381524D01*
X154674185Y-85496339D01*
X154700895Y-85607594D01*
X154702788Y-85612165D01*
X154702789Y-85612167D01*
X154789508Y-85821525D01*
X154791760Y-85826963D01*
X154794346Y-85831183D01*
X154913241Y-86025202D01*
X154913245Y-86025208D01*
X154915824Y-86029416D01*
X155070031Y-86209969D01*
X155073787Y-86213177D01*
X155083386Y-86221375D01*
X155250584Y-86364176D01*
X155254792Y-86366755D01*
X155254798Y-86366759D01*
X155391781Y-86450702D01*
X155453037Y-86488240D01*
X155457607Y-86490133D01*
X155457611Y-86490135D01*
X155667833Y-86577211D01*
X155672406Y-86579105D01*
X155751609Y-86598120D01*
X155898476Y-86633380D01*
X155898482Y-86633381D01*
X155903289Y-86634535D01*
X156140000Y-86653165D01*
X156376711Y-86634535D01*
X156381518Y-86633381D01*
X156381524Y-86633380D01*
X156528391Y-86598120D01*
X156607594Y-86579105D01*
X156620095Y-86573927D01*
X156690685Y-86566339D01*
X156754171Y-86598120D01*
X156790398Y-86659179D01*
X156793598Y-86703726D01*
X156777251Y-86856695D01*
X156777548Y-86861848D01*
X156777548Y-86861851D01*
X156783011Y-86956590D01*
X156790110Y-87079715D01*
X156791247Y-87084761D01*
X156791248Y-87084767D01*
X156800655Y-87126506D01*
X156839222Y-87297639D01*
X156923266Y-87504616D01*
X157039987Y-87695088D01*
X157186250Y-87863938D01*
X157358126Y-88006632D01*
X157551000Y-88119338D01*
X157759692Y-88199030D01*
X157764760Y-88200061D01*
X157764763Y-88200062D01*
X157872017Y-88221883D01*
X157978597Y-88243567D01*
X157983772Y-88243757D01*
X157983774Y-88243757D01*
X158196673Y-88251564D01*
X158196677Y-88251564D01*
X158201837Y-88251753D01*
X158206957Y-88251097D01*
X158206959Y-88251097D01*
X158418288Y-88224025D01*
X158418289Y-88224025D01*
X158423416Y-88223368D01*
X158428366Y-88221883D01*
X158632429Y-88160661D01*
X158632434Y-88160659D01*
X158637384Y-88159174D01*
X158837994Y-88060896D01*
X159019860Y-87931173D01*
X159178096Y-87773489D01*
X159237594Y-87690689D01*
X159305435Y-87596277D01*
X159308453Y-87592077D01*
X159372000Y-87463500D01*
X159405136Y-87396453D01*
X159405137Y-87396451D01*
X159407430Y-87391811D01*
X159472370Y-87178069D01*
X159501529Y-86956590D01*
X159503156Y-86890000D01*
X159500418Y-86856695D01*
X160777251Y-86856695D01*
X160777548Y-86861848D01*
X160777548Y-86861851D01*
X160783011Y-86956590D01*
X160790110Y-87079715D01*
X160791247Y-87084761D01*
X160791248Y-87084767D01*
X160800655Y-87126506D01*
X160839222Y-87297639D01*
X160923266Y-87504616D01*
X161039987Y-87695088D01*
X161186250Y-87863938D01*
X161358126Y-88006632D01*
X161551000Y-88119338D01*
X161759692Y-88199030D01*
X161764760Y-88200061D01*
X161764763Y-88200062D01*
X161872017Y-88221883D01*
X161978597Y-88243567D01*
X161983772Y-88243757D01*
X161983774Y-88243757D01*
X162196673Y-88251564D01*
X162196677Y-88251564D01*
X162201837Y-88251753D01*
X162206957Y-88251097D01*
X162206959Y-88251097D01*
X162418288Y-88224025D01*
X162418289Y-88224025D01*
X162423416Y-88223368D01*
X162428366Y-88221883D01*
X162632429Y-88160661D01*
X162632434Y-88160659D01*
X162637384Y-88159174D01*
X162837994Y-88060896D01*
X163019860Y-87931173D01*
X163178096Y-87773489D01*
X163237594Y-87690689D01*
X163305435Y-87596277D01*
X163308453Y-87592077D01*
X163372000Y-87463500D01*
X163405136Y-87396453D01*
X163405137Y-87396451D01*
X163407430Y-87391811D01*
X163472370Y-87178069D01*
X163501529Y-86956590D01*
X163503156Y-86890000D01*
X163500418Y-86856695D01*
X164777251Y-86856695D01*
X164777548Y-86861848D01*
X164777548Y-86861851D01*
X164783011Y-86956590D01*
X164790110Y-87079715D01*
X164791247Y-87084761D01*
X164791248Y-87084767D01*
X164800655Y-87126506D01*
X164839222Y-87297639D01*
X164923266Y-87504616D01*
X165039987Y-87695088D01*
X165186250Y-87863938D01*
X165358126Y-88006632D01*
X165551000Y-88119338D01*
X165759692Y-88199030D01*
X165764760Y-88200061D01*
X165764763Y-88200062D01*
X165872017Y-88221883D01*
X165978597Y-88243567D01*
X165983772Y-88243757D01*
X165983774Y-88243757D01*
X166196673Y-88251564D01*
X166196677Y-88251564D01*
X166201837Y-88251753D01*
X166206957Y-88251097D01*
X166206959Y-88251097D01*
X166418288Y-88224025D01*
X166418289Y-88224025D01*
X166423416Y-88223368D01*
X166428366Y-88221883D01*
X166632429Y-88160661D01*
X166632434Y-88160659D01*
X166637384Y-88159174D01*
X166837994Y-88060896D01*
X167019860Y-87931173D01*
X167178096Y-87773489D01*
X167237594Y-87690689D01*
X167305435Y-87596277D01*
X167308453Y-87592077D01*
X167372000Y-87463500D01*
X167405136Y-87396453D01*
X167405137Y-87396451D01*
X167407430Y-87391811D01*
X167472370Y-87178069D01*
X167501529Y-86956590D01*
X167503156Y-86890000D01*
X167487642Y-86701294D01*
X167501995Y-86631763D01*
X167551661Y-86581030D01*
X167620871Y-86565203D01*
X167661434Y-86574560D01*
X167672406Y-86579105D01*
X167751609Y-86598120D01*
X167898476Y-86633380D01*
X167898482Y-86633381D01*
X167903289Y-86634535D01*
X168140000Y-86653165D01*
X168376711Y-86634535D01*
X168381518Y-86633381D01*
X168381524Y-86633380D01*
X168528391Y-86598120D01*
X168607594Y-86579105D01*
X168612167Y-86577211D01*
X168822389Y-86490135D01*
X168822393Y-86490133D01*
X168826963Y-86488240D01*
X168888219Y-86450702D01*
X169025202Y-86366759D01*
X169025208Y-86366755D01*
X169029416Y-86364176D01*
X169196614Y-86221375D01*
X169206213Y-86213177D01*
X169209969Y-86209969D01*
X169364176Y-86029416D01*
X169366755Y-86025208D01*
X169366759Y-86025202D01*
X169485654Y-85831183D01*
X169488240Y-85826963D01*
X169490493Y-85821525D01*
X169577211Y-85612167D01*
X169577212Y-85612165D01*
X169579105Y-85607594D01*
X169605815Y-85496339D01*
X169633380Y-85381524D01*
X169633381Y-85381518D01*
X169634535Y-85376711D01*
X169653165Y-85140000D01*
X169634535Y-84903289D01*
X169624552Y-84861704D01*
X169580260Y-84677218D01*
X169579105Y-84672406D01*
X169488240Y-84453037D01*
X169485654Y-84448817D01*
X169366759Y-84254798D01*
X169366755Y-84254792D01*
X169364176Y-84250584D01*
X169209969Y-84070031D01*
X169029416Y-83915824D01*
X169025208Y-83913245D01*
X169025202Y-83913241D01*
X168831183Y-83794346D01*
X168826963Y-83791760D01*
X168822393Y-83789867D01*
X168822389Y-83789865D01*
X168612167Y-83702789D01*
X168612165Y-83702788D01*
X168607594Y-83700895D01*
X168527391Y-83681640D01*
X168381524Y-83646620D01*
X168381518Y-83646619D01*
X168376711Y-83645465D01*
X168140000Y-83626835D01*
X167903289Y-83645465D01*
X167898482Y-83646619D01*
X167898476Y-83646620D01*
X167752609Y-83681640D01*
X167672406Y-83700895D01*
X167667835Y-83702788D01*
X167667833Y-83702789D01*
X167457611Y-83789865D01*
X167457607Y-83789867D01*
X167453037Y-83791760D01*
X167448817Y-83794346D01*
X167254798Y-83913241D01*
X167254792Y-83913245D01*
X167250584Y-83915824D01*
X167070031Y-84070031D01*
X166915824Y-84250584D01*
X166913245Y-84254792D01*
X166913241Y-84254798D01*
X166794346Y-84448817D01*
X166791760Y-84453037D01*
X166700895Y-84672406D01*
X166699740Y-84677218D01*
X166655449Y-84861704D01*
X166645465Y-84903289D01*
X166626835Y-85140000D01*
X166645465Y-85376711D01*
X166646621Y-85381524D01*
X166646621Y-85381527D01*
X166657161Y-85425431D01*
X166653613Y-85496339D01*
X166612293Y-85554072D01*
X166546320Y-85580302D01*
X166498299Y-85574326D01*
X166498090Y-85575117D01*
X166493086Y-85573795D01*
X166488212Y-85572069D01*
X166483119Y-85571162D01*
X166483116Y-85571161D01*
X166273373Y-85533800D01*
X166273367Y-85533799D01*
X166268284Y-85532894D01*
X166194452Y-85531992D01*
X166050081Y-85530228D01*
X166050079Y-85530228D01*
X166044911Y-85530165D01*
X165824091Y-85563955D01*
X165611756Y-85633357D01*
X165413607Y-85736507D01*
X165409474Y-85739610D01*
X165409471Y-85739612D01*
X165287510Y-85831183D01*
X165234965Y-85870635D01*
X165080629Y-86032138D01*
X164954743Y-86216680D01*
X164860688Y-86419305D01*
X164800989Y-86634570D01*
X164777251Y-86856695D01*
X163500418Y-86856695D01*
X163484852Y-86667361D01*
X163430431Y-86450702D01*
X163341354Y-86245840D01*
X163220014Y-86058277D01*
X163069670Y-85893051D01*
X163065619Y-85889852D01*
X163065615Y-85889848D01*
X162898414Y-85757800D01*
X162898410Y-85757798D01*
X162894359Y-85754598D01*
X162698789Y-85646638D01*
X162693920Y-85644914D01*
X162693916Y-85644912D01*
X162493087Y-85573795D01*
X162493083Y-85573794D01*
X162488212Y-85572069D01*
X162483119Y-85571162D01*
X162483116Y-85571161D01*
X162273373Y-85533800D01*
X162273367Y-85533799D01*
X162268284Y-85532894D01*
X162194452Y-85531992D01*
X162050081Y-85530228D01*
X162050079Y-85530228D01*
X162044911Y-85530165D01*
X161824091Y-85563955D01*
X161611756Y-85633357D01*
X161413607Y-85736507D01*
X161409474Y-85739610D01*
X161409471Y-85739612D01*
X161287510Y-85831183D01*
X161234965Y-85870635D01*
X161080629Y-86032138D01*
X160954743Y-86216680D01*
X160860688Y-86419305D01*
X160800989Y-86634570D01*
X160777251Y-86856695D01*
X159500418Y-86856695D01*
X159484852Y-86667361D01*
X159430431Y-86450702D01*
X159341354Y-86245840D01*
X159220014Y-86058277D01*
X159069670Y-85893051D01*
X159065619Y-85889852D01*
X159065615Y-85889848D01*
X158898414Y-85757800D01*
X158898410Y-85757798D01*
X158894359Y-85754598D01*
X158698789Y-85646638D01*
X158693920Y-85644914D01*
X158693916Y-85644912D01*
X158493087Y-85573795D01*
X158493083Y-85573794D01*
X158488212Y-85572069D01*
X158483119Y-85571162D01*
X158483116Y-85571161D01*
X158273373Y-85533800D01*
X158273367Y-85533799D01*
X158268284Y-85532894D01*
X158194452Y-85531992D01*
X158050081Y-85530228D01*
X158050079Y-85530228D01*
X158044911Y-85530165D01*
X157824091Y-85563955D01*
X157793986Y-85573795D01*
X157783907Y-85577089D01*
X157712943Y-85579240D01*
X157652081Y-85542684D01*
X157620645Y-85479026D01*
X157622244Y-85427909D01*
X157633378Y-85381533D01*
X157633379Y-85381525D01*
X157634535Y-85376711D01*
X157653165Y-85140000D01*
X157634535Y-84903289D01*
X157624552Y-84861704D01*
X157580260Y-84677218D01*
X157579105Y-84672406D01*
X157488240Y-84453037D01*
X157485654Y-84448817D01*
X157366759Y-84254798D01*
X157366755Y-84254792D01*
X157364176Y-84250584D01*
X157209969Y-84070031D01*
X157029416Y-83915824D01*
X157025208Y-83913245D01*
X157025202Y-83913241D01*
X156831183Y-83794346D01*
X156826963Y-83791760D01*
X156822393Y-83789867D01*
X156822389Y-83789865D01*
X156612167Y-83702789D01*
X156612165Y-83702788D01*
X156607594Y-83700895D01*
X156527391Y-83681640D01*
X156381524Y-83646620D01*
X156381518Y-83646619D01*
X156376711Y-83645465D01*
X156140000Y-83626835D01*
X155903289Y-83645465D01*
X155898482Y-83646619D01*
X155898476Y-83646620D01*
X155752609Y-83681640D01*
X155672406Y-83700895D01*
X155667835Y-83702788D01*
X155667833Y-83702789D01*
X155457611Y-83789865D01*
X155457607Y-83789867D01*
X155453037Y-83791760D01*
X155448817Y-83794346D01*
X155254798Y-83913241D01*
X155254792Y-83913245D01*
X155250584Y-83915824D01*
X155070031Y-84070031D01*
X154915824Y-84250584D01*
X154913245Y-84254792D01*
X154913241Y-84254798D01*
X154794346Y-84448817D01*
X154791760Y-84453037D01*
X154700895Y-84672406D01*
X154699740Y-84677218D01*
X154655449Y-84861704D01*
X154645465Y-84903289D01*
X154626835Y-85140000D01*
X151626605Y-85140000D01*
X151549738Y-85042143D01*
X151541501Y-85033494D01*
X151390877Y-84902788D01*
X151381153Y-84895853D01*
X151208533Y-84795990D01*
X151197669Y-84791016D01*
X151009273Y-84725593D01*
X151008284Y-84725352D01*
X150997992Y-84726820D01*
X150994000Y-84740385D01*
X150994000Y-85807885D01*
X150486000Y-85807885D01*
X150486000Y-84744598D01*
X150482027Y-84731067D01*
X150472601Y-84729712D01*
X150383463Y-84751194D01*
X150372168Y-84755083D01*
X150190618Y-84837629D01*
X150180276Y-84843576D01*
X150017603Y-84958968D01*
X150008575Y-84966761D01*
X149921465Y-85057757D01*
X149859910Y-85093133D01*
X149789000Y-85089614D01*
X149731250Y-85048317D01*
X149723315Y-85036947D01*
X149688478Y-84980652D01*
X149563303Y-84855695D01*
X149557072Y-84851854D01*
X149418968Y-84766725D01*
X149418966Y-84766724D01*
X149412738Y-84762885D01*
X149304005Y-84726820D01*
X149251389Y-84709368D01*
X149251387Y-84709368D01*
X149244861Y-84707203D01*
X149238025Y-84706503D01*
X149238022Y-84706502D01*
X149194969Y-84702091D01*
X149140400Y-84696500D01*
X148339600Y-84696500D01*
X148336354Y-84696837D01*
X148336350Y-84696837D01*
X148240692Y-84706762D01*
X148240688Y-84706763D01*
X148233834Y-84707474D01*
X148227298Y-84709655D01*
X148227296Y-84709655D01*
X148163117Y-84731067D01*
X148066054Y-84763450D01*
X147915652Y-84856522D01*
X147790695Y-84981697D01*
X147786855Y-84987927D01*
X147786854Y-84987928D01*
X147722005Y-85093133D01*
X147697885Y-85132262D01*
X147642203Y-85300139D01*
X147631500Y-85404600D01*
X147631500Y-86755400D01*
X140208500Y-86755400D01*
X140208500Y-78875151D01*
X142777296Y-78875151D01*
X142789480Y-79128798D01*
X142839021Y-79377857D01*
X142840600Y-79382255D01*
X142840602Y-79382262D01*
X142885022Y-79505980D01*
X142924831Y-79616858D01*
X143045025Y-79840551D01*
X143047820Y-79844294D01*
X143047822Y-79844297D01*
X143194171Y-80040282D01*
X143194176Y-80040288D01*
X143196963Y-80044020D01*
X143200272Y-80047300D01*
X143200277Y-80047306D01*
X143298859Y-80145031D01*
X143377307Y-80222797D01*
X143381069Y-80225555D01*
X143381072Y-80225558D01*
X143486764Y-80303054D01*
X143582094Y-80372953D01*
X143586229Y-80375129D01*
X143586233Y-80375131D01*
X143704289Y-80437243D01*
X143806827Y-80491191D01*
X144046568Y-80574912D01*
X144296050Y-80622278D01*
X144416532Y-80627011D01*
X144545125Y-80632064D01*
X144545130Y-80632064D01*
X144549793Y-80632247D01*
X144648774Y-80621407D01*
X144797569Y-80605112D01*
X144797575Y-80605111D01*
X144802222Y-80604602D01*
X144911680Y-80575784D01*
X145043273Y-80541138D01*
X145047793Y-80539948D01*
X145166353Y-80489011D01*
X145276807Y-80441557D01*
X145276810Y-80441555D01*
X145281110Y-80439708D01*
X145285090Y-80437245D01*
X145285094Y-80437243D01*
X145493064Y-80308547D01*
X145493066Y-80308545D01*
X145497047Y-80306082D01*
X145595428Y-80222797D01*
X145687289Y-80145031D01*
X145687291Y-80145029D01*
X145690862Y-80142006D01*
X145858295Y-79951084D01*
X145995669Y-79737512D01*
X146099967Y-79505980D01*
X146168896Y-79261575D01*
X146200943Y-79009667D01*
X146203291Y-78920000D01*
X146199958Y-78875151D01*
X163097296Y-78875151D01*
X163109480Y-79128798D01*
X163159021Y-79377857D01*
X163160600Y-79382255D01*
X163160602Y-79382262D01*
X163205022Y-79505980D01*
X163244831Y-79616858D01*
X163365025Y-79840551D01*
X163367820Y-79844294D01*
X163367822Y-79844297D01*
X163514171Y-80040282D01*
X163514176Y-80040288D01*
X163516963Y-80044020D01*
X163520272Y-80047300D01*
X163520277Y-80047306D01*
X163618859Y-80145031D01*
X163697307Y-80222797D01*
X163701069Y-80225555D01*
X163701072Y-80225558D01*
X163806764Y-80303054D01*
X163902094Y-80372953D01*
X163906229Y-80375129D01*
X163906233Y-80375131D01*
X164024289Y-80437243D01*
X164126827Y-80491191D01*
X164366568Y-80574912D01*
X164616050Y-80622278D01*
X164736532Y-80627011D01*
X164865125Y-80632064D01*
X164865130Y-80632064D01*
X164869793Y-80632247D01*
X164968774Y-80621407D01*
X165117569Y-80605112D01*
X165117575Y-80605111D01*
X165122222Y-80604602D01*
X165231680Y-80575784D01*
X165363273Y-80541138D01*
X165367793Y-80539948D01*
X165486353Y-80489011D01*
X165596807Y-80441557D01*
X165596810Y-80441555D01*
X165601110Y-80439708D01*
X165605090Y-80437245D01*
X165605094Y-80437243D01*
X165813064Y-80308547D01*
X165813066Y-80308545D01*
X165817047Y-80306082D01*
X165915428Y-80222797D01*
X166007289Y-80145031D01*
X166007291Y-80145029D01*
X166010862Y-80142006D01*
X166178295Y-79951084D01*
X166315669Y-79737512D01*
X166419967Y-79505980D01*
X166488896Y-79261575D01*
X166520943Y-79009667D01*
X166523291Y-78920000D01*
X166504472Y-78666759D01*
X166448428Y-78419082D01*
X166356391Y-78182409D01*
X166335866Y-78146498D01*
X166232702Y-77965997D01*
X166232700Y-77965995D01*
X166230383Y-77961940D01*
X166073171Y-77762517D01*
X165888209Y-77588523D01*
X165844483Y-77558189D01*
X165683393Y-77446437D01*
X165683390Y-77446435D01*
X165679561Y-77443779D01*
X165675384Y-77441719D01*
X165675377Y-77441715D01*
X165455996Y-77333528D01*
X165455992Y-77333527D01*
X165451810Y-77331464D01*
X165209960Y-77254047D01*
X165205355Y-77253297D01*
X164963935Y-77213980D01*
X164963934Y-77213980D01*
X164959323Y-77213229D01*
X164832364Y-77211567D01*
X164710083Y-77209966D01*
X164710080Y-77209966D01*
X164705406Y-77209905D01*
X164453787Y-77244149D01*
X164209993Y-77315208D01*
X163979380Y-77421522D01*
X163975471Y-77424085D01*
X163770928Y-77558189D01*
X163770923Y-77558193D01*
X163767015Y-77560755D01*
X163577562Y-77729848D01*
X163415183Y-77925087D01*
X163283447Y-78142182D01*
X163185246Y-78376365D01*
X163122738Y-78622490D01*
X163097296Y-78875151D01*
X146199958Y-78875151D01*
X146184472Y-78666759D01*
X146128428Y-78419082D01*
X146036391Y-78182409D01*
X146015866Y-78146498D01*
X145912702Y-77965997D01*
X145912700Y-77965995D01*
X145910383Y-77961940D01*
X145753171Y-77762517D01*
X145568209Y-77588523D01*
X145524483Y-77558189D01*
X145363393Y-77446437D01*
X145363390Y-77446435D01*
X145359561Y-77443779D01*
X145355384Y-77441719D01*
X145355377Y-77441715D01*
X145135996Y-77333528D01*
X145135992Y-77333527D01*
X145131810Y-77331464D01*
X144889960Y-77254047D01*
X144885355Y-77253297D01*
X144643935Y-77213980D01*
X144643934Y-77213980D01*
X144639323Y-77213229D01*
X144512364Y-77211567D01*
X144390083Y-77209966D01*
X144390080Y-77209966D01*
X144385406Y-77209905D01*
X144133787Y-77244149D01*
X143889993Y-77315208D01*
X143659380Y-77421522D01*
X143655471Y-77424085D01*
X143450928Y-77558189D01*
X143450923Y-77558193D01*
X143447015Y-77560755D01*
X143257562Y-77729848D01*
X143095183Y-77925087D01*
X142963447Y-78142182D01*
X142865246Y-78376365D01*
X142802738Y-78622490D01*
X142777296Y-78875151D01*
X140208500Y-78875151D01*
X140208500Y-72435151D01*
X143147296Y-72435151D01*
X143159480Y-72688798D01*
X143209021Y-72937857D01*
X143210600Y-72942255D01*
X143210602Y-72942262D01*
X143255022Y-73065980D01*
X143294831Y-73176858D01*
X143415025Y-73400551D01*
X143417820Y-73404294D01*
X143417822Y-73404297D01*
X143564171Y-73600282D01*
X143564176Y-73600288D01*
X143566963Y-73604020D01*
X143570272Y-73607300D01*
X143570277Y-73607306D01*
X143668859Y-73705031D01*
X143747307Y-73782797D01*
X143751069Y-73785555D01*
X143751072Y-73785558D01*
X143856764Y-73863054D01*
X143952094Y-73932953D01*
X143956229Y-73935129D01*
X143956233Y-73935131D01*
X144074289Y-73997243D01*
X144176827Y-74051191D01*
X144416568Y-74134912D01*
X144666050Y-74182278D01*
X144786532Y-74187011D01*
X144915125Y-74192064D01*
X144915130Y-74192064D01*
X144919793Y-74192247D01*
X145018774Y-74181407D01*
X145167569Y-74165112D01*
X145167575Y-74165111D01*
X145172222Y-74164602D01*
X145281680Y-74135784D01*
X145413273Y-74101138D01*
X145417793Y-74099948D01*
X145536353Y-74049011D01*
X145646807Y-74001557D01*
X145646810Y-74001555D01*
X145651110Y-73999708D01*
X145655090Y-73997245D01*
X145655094Y-73997243D01*
X145863064Y-73868547D01*
X145863066Y-73868545D01*
X145867047Y-73866082D01*
X145965428Y-73782797D01*
X146057289Y-73705031D01*
X146057291Y-73705029D01*
X146060862Y-73702006D01*
X146228295Y-73511084D01*
X146365669Y-73297512D01*
X146469967Y-73065980D01*
X146538896Y-72821575D01*
X146570943Y-72569667D01*
X146573291Y-72480000D01*
X146569958Y-72435151D01*
X163467296Y-72435151D01*
X163479480Y-72688798D01*
X163529021Y-72937857D01*
X163530600Y-72942255D01*
X163530602Y-72942262D01*
X163575022Y-73065980D01*
X163614831Y-73176858D01*
X163735025Y-73400551D01*
X163737820Y-73404294D01*
X163737822Y-73404297D01*
X163884171Y-73600282D01*
X163884176Y-73600288D01*
X163886963Y-73604020D01*
X163890272Y-73607300D01*
X163890277Y-73607306D01*
X163988859Y-73705031D01*
X164067307Y-73782797D01*
X164071069Y-73785555D01*
X164071072Y-73785558D01*
X164176764Y-73863054D01*
X164272094Y-73932953D01*
X164276229Y-73935129D01*
X164276233Y-73935131D01*
X164394289Y-73997243D01*
X164496827Y-74051191D01*
X164736568Y-74134912D01*
X164986050Y-74182278D01*
X165106532Y-74187011D01*
X165235125Y-74192064D01*
X165235130Y-74192064D01*
X165239793Y-74192247D01*
X165338774Y-74181407D01*
X165487569Y-74165112D01*
X165487575Y-74165111D01*
X165492222Y-74164602D01*
X165601680Y-74135784D01*
X165733273Y-74101138D01*
X165737793Y-74099948D01*
X165856353Y-74049011D01*
X165966807Y-74001557D01*
X165966810Y-74001555D01*
X165971110Y-73999708D01*
X165975090Y-73997245D01*
X165975094Y-73997243D01*
X166183064Y-73868547D01*
X166183066Y-73868545D01*
X166187047Y-73866082D01*
X166285428Y-73782797D01*
X166377289Y-73705031D01*
X166377291Y-73705029D01*
X166380862Y-73702006D01*
X166548295Y-73511084D01*
X166685669Y-73297512D01*
X166789967Y-73065980D01*
X166858896Y-72821575D01*
X166890943Y-72569667D01*
X166893291Y-72480000D01*
X166874472Y-72226759D01*
X166818428Y-71979082D01*
X166726391Y-71742409D01*
X166705866Y-71706498D01*
X166602702Y-71525997D01*
X166602700Y-71525995D01*
X166600383Y-71521940D01*
X166443171Y-71322517D01*
X166258209Y-71148523D01*
X166214483Y-71118189D01*
X166053393Y-71006437D01*
X166053390Y-71006435D01*
X166049561Y-71003779D01*
X166045384Y-71001719D01*
X166045377Y-71001715D01*
X165825996Y-70893528D01*
X165825992Y-70893527D01*
X165821810Y-70891464D01*
X165579960Y-70814047D01*
X165575355Y-70813297D01*
X165333935Y-70773980D01*
X165333934Y-70773980D01*
X165329323Y-70773229D01*
X165202364Y-70771567D01*
X165080083Y-70769966D01*
X165080080Y-70769966D01*
X165075406Y-70769905D01*
X164823787Y-70804149D01*
X164579993Y-70875208D01*
X164349380Y-70981522D01*
X164345471Y-70984085D01*
X164140928Y-71118189D01*
X164140923Y-71118193D01*
X164137015Y-71120755D01*
X163947562Y-71289848D01*
X163785183Y-71485087D01*
X163653447Y-71702182D01*
X163555246Y-71936365D01*
X163492738Y-72182490D01*
X163467296Y-72435151D01*
X146569958Y-72435151D01*
X146554472Y-72226759D01*
X146498428Y-71979082D01*
X146406391Y-71742409D01*
X146385866Y-71706498D01*
X146282702Y-71525997D01*
X146282700Y-71525995D01*
X146280383Y-71521940D01*
X146123171Y-71322517D01*
X145938209Y-71148523D01*
X145894483Y-71118189D01*
X145733393Y-71006437D01*
X145733390Y-71006435D01*
X145729561Y-71003779D01*
X145725384Y-71001719D01*
X145725377Y-71001715D01*
X145505996Y-70893528D01*
X145505992Y-70893527D01*
X145501810Y-70891464D01*
X145259960Y-70814047D01*
X145255355Y-70813297D01*
X145013935Y-70773980D01*
X145013934Y-70773980D01*
X145009323Y-70773229D01*
X144882364Y-70771567D01*
X144760083Y-70769966D01*
X144760080Y-70769966D01*
X144755406Y-70769905D01*
X144503787Y-70804149D01*
X144259993Y-70875208D01*
X144029380Y-70981522D01*
X144025471Y-70984085D01*
X143820928Y-71118189D01*
X143820923Y-71118193D01*
X143817015Y-71120755D01*
X143627562Y-71289848D01*
X143465183Y-71485087D01*
X143333447Y-71702182D01*
X143235246Y-71936365D01*
X143172738Y-72182490D01*
X143147296Y-72435151D01*
X140208500Y-72435151D01*
X140208500Y-70193720D01*
X140228502Y-70125599D01*
X140282158Y-70079106D01*
X140352432Y-70069002D01*
X140417012Y-70098496D01*
X140438153Y-70122080D01*
X140495623Y-70205233D01*
X140680450Y-70405178D01*
X140891606Y-70577086D01*
X140895414Y-70579379D01*
X140895416Y-70579380D01*
X141121061Y-70715229D01*
X141121065Y-70715231D01*
X141124877Y-70717526D01*
X141250064Y-70770536D01*
X141371506Y-70821961D01*
X141371511Y-70821963D01*
X141375609Y-70823698D01*
X141379906Y-70824837D01*
X141379911Y-70824839D01*
X141507204Y-70858590D01*
X141638799Y-70893481D01*
X141909196Y-70925485D01*
X142181406Y-70919070D01*
X142185800Y-70918339D01*
X142185807Y-70918338D01*
X142445593Y-70875098D01*
X142445597Y-70875097D01*
X142449995Y-70874365D01*
X142709606Y-70792260D01*
X142713617Y-70790334D01*
X142713622Y-70790332D01*
X142951041Y-70676326D01*
X142951048Y-70676322D01*
X142955059Y-70674396D01*
X143068884Y-70598341D01*
X143177747Y-70525601D01*
X143177751Y-70525598D01*
X143181455Y-70523123D01*
X143384278Y-70341459D01*
X143559481Y-70133030D01*
X143703569Y-69901993D01*
X143813665Y-69652960D01*
X143887574Y-69390898D01*
X143890598Y-69368387D01*
X143923394Y-69124219D01*
X143923395Y-69124211D01*
X143923821Y-69121037D01*
X143927625Y-69000000D01*
X143908394Y-68728395D01*
X143907457Y-68724044D01*
X143907415Y-68723747D01*
X143917623Y-68653488D01*
X143964196Y-68599901D01*
X144032159Y-68580000D01*
X167970586Y-68580000D01*
X168038707Y-68600002D01*
G37*
G04 #@! TD.AperFunction*
G04 #@! TD*
M02*
