G04 #@! TF.GenerationSoftware,KiCad,Pcbnew,(6.0.4)*
G04 #@! TF.CreationDate,2023-02-21T11:49:36-08:00*
G04 #@! TF.ProjectId,Lab4_Exercise,4c616234-5f45-4786-9572-636973652e6b,rev?*
G04 #@! TF.SameCoordinates,Original*
G04 #@! TF.FileFunction,Copper,L1,Top*
G04 #@! TF.FilePolarity,Positive*
%FSLAX46Y46*%
G04 Gerber Fmt 4.6, Leading zero omitted, Abs format (unit mm)*
G04 Created by KiCad (PCBNEW (6.0.4)) date 2023-02-21 11:49:36*
%MOMM*%
%LPD*%
G01*
G04 APERTURE LIST*
G04 Aperture macros list*
%AMRoundRect*
0 Rectangle with rounded corners*
0 $1 Rounding radius*
0 $2 $3 $4 $5 $6 $7 $8 $9 X,Y pos of 4 corners*
0 Add a 4 corners polygon primitive as box body*
4,1,4,$2,$3,$4,$5,$6,$7,$8,$9,$2,$3,0*
0 Add four circle primitives for the rounded corners*
1,1,$1+$1,$2,$3*
1,1,$1+$1,$4,$5*
1,1,$1+$1,$6,$7*
1,1,$1+$1,$8,$9*
0 Add four rect primitives between the rounded corners*
20,1,$1+$1,$2,$3,$4,$5,0*
20,1,$1+$1,$4,$5,$6,$7,0*
20,1,$1+$1,$6,$7,$8,$9,0*
20,1,$1+$1,$8,$9,$2,$3,0*%
G04 Aperture macros list end*
G04 #@! TA.AperFunction,ComponentPad*
%ADD10C,2.000000*%
G04 #@! TD*
G04 #@! TA.AperFunction,ComponentPad*
%ADD11C,1.700000*%
G04 #@! TD*
G04 #@! TA.AperFunction,ComponentPad*
%ADD12C,2.400000*%
G04 #@! TD*
G04 #@! TA.AperFunction,ComponentPad*
%ADD13O,2.400000X2.400000*%
G04 #@! TD*
G04 #@! TA.AperFunction,ComponentPad*
%ADD14RoundRect,0.250000X-0.350000X-0.625000X0.350000X-0.625000X0.350000X0.625000X-0.350000X0.625000X0*%
G04 #@! TD*
G04 #@! TA.AperFunction,ComponentPad*
%ADD15O,1.200000X1.750000*%
G04 #@! TD*
G04 #@! TA.AperFunction,ComponentPad*
%ADD16R,1.800000X1.800000*%
G04 #@! TD*
G04 #@! TA.AperFunction,ComponentPad*
%ADD17C,1.800000*%
G04 #@! TD*
G04 #@! TA.AperFunction,ComponentPad*
%ADD18C,1.200000*%
G04 #@! TD*
G04 #@! TA.AperFunction,Conductor*
%ADD19C,0.250000*%
G04 #@! TD*
G04 APERTURE END LIST*
D10*
G04 #@! TO.P,SW1,*
G04 #@! TO.N,*
X168140000Y-91140000D03*
X156140000Y-91140000D03*
X168140000Y-85140000D03*
X156140000Y-85140000D03*
D11*
G04 #@! TO.P,SW1,1,A*
G04 #@! TO.N,unconnected-(SW1-Pad1)*
X158140000Y-86890000D03*
G04 #@! TO.P,SW1,2,B*
G04 #@! TO.N,Net-(R1-Pad2)*
X162140000Y-86890000D03*
G04 #@! TO.P,SW1,3,C*
G04 #@! TO.N,Net-(C1-Pad1)*
X166140000Y-86890000D03*
G04 #@! TD*
D12*
G04 #@! TO.P,R1,1*
G04 #@! TO.N,+9V*
X144490000Y-78920000D03*
D13*
G04 #@! TO.P,R1,2*
G04 #@! TO.N,Net-(R1-Pad2)*
X164810000Y-78920000D03*
G04 #@! TD*
D14*
G04 #@! TO.P,J1,1,Pin_1*
G04 #@! TO.N,+9V*
X148740000Y-86080000D03*
D15*
G04 #@! TO.P,J1,2,Pin_2*
G04 #@! TO.N,GND*
X150740000Y-86080000D03*
G04 #@! TD*
D16*
G04 #@! TO.P,D1,1,K*
G04 #@! TO.N,GND*
X145730000Y-97095000D03*
D17*
G04 #@! TO.P,D1,2,A*
G04 #@! TO.N,Net-(D1-Pad2)*
X145730000Y-94555000D03*
G04 #@! TD*
D18*
G04 #@! TO.P,C1,1*
G04 #@! TO.N,Net-(C1-Pad1)*
X153540000Y-96560000D03*
G04 #@! TO.P,C1,2*
G04 #@! TO.N,GND*
X153540000Y-94560000D03*
G04 #@! TD*
D12*
G04 #@! TO.P,R2,1*
G04 #@! TO.N,Net-(D1-Pad2)*
X144860000Y-72480000D03*
D13*
G04 #@! TO.P,R2,2*
G04 #@! TO.N,Net-(C1-Pad1)*
X165180000Y-72480000D03*
G04 #@! TD*
D19*
G04 #@! TO.N,Net-(C1-Pad1)*
X166500000Y-86530000D02*
X166140000Y-86890000D01*
X153540000Y-96560000D02*
X156470000Y-96560000D01*
X156470000Y-96560000D02*
X166140000Y-86890000D01*
X166500000Y-73800000D02*
X166500000Y-86530000D01*
X165180000Y-72480000D02*
X166500000Y-73800000D01*
G04 #@! TO.N,Net-(D1-Pad2)*
X141240000Y-78810000D02*
X141240000Y-76100000D01*
X141240000Y-76100000D02*
X144860000Y-72480000D01*
X145730000Y-94555000D02*
X145730000Y-83300000D01*
X145730000Y-83300000D02*
X141240000Y-78810000D01*
G04 #@! TO.N,+9V*
X148740000Y-83170000D02*
X144490000Y-78920000D01*
X148740000Y-86080000D02*
X148740000Y-83170000D01*
G04 #@! TO.N,Net-(R1-Pad2)*
X162140000Y-81590000D02*
X162140000Y-86890000D01*
X164810000Y-78920000D02*
X162140000Y-81590000D01*
G04 #@! TD*
M02*
