G04 #@! TF.GenerationSoftware,KiCad,Pcbnew,(6.0.4)*
G04 #@! TF.CreationDate,2023-02-21T11:54:07-08:00*
G04 #@! TF.ProjectId,Lab4_Exercise2,4c616234-5f45-4786-9572-63697365322e,rev?*
G04 #@! TF.SameCoordinates,Original*
G04 #@! TF.FileFunction,Copper,L1,Top*
G04 #@! TF.FilePolarity,Positive*
%FSLAX46Y46*%
G04 Gerber Fmt 4.6, Leading zero omitted, Abs format (unit mm)*
G04 Created by KiCad (PCBNEW (6.0.4)) date 2023-02-21 11:54:07*
%MOMM*%
%LPD*%
G01*
G04 APERTURE LIST*
G04 Aperture macros list*
%AMRoundRect*
0 Rectangle with rounded corners*
0 $1 Rounding radius*
0 $2 $3 $4 $5 $6 $7 $8 $9 X,Y pos of 4 corners*
0 Add a 4 corners polygon primitive as box body*
4,1,4,$2,$3,$4,$5,$6,$7,$8,$9,$2,$3,0*
0 Add four circle primitives for the rounded corners*
1,1,$1+$1,$2,$3*
1,1,$1+$1,$4,$5*
1,1,$1+$1,$6,$7*
1,1,$1+$1,$8,$9*
0 Add four rect primitives between the rounded corners*
20,1,$1+$1,$2,$3,$4,$5,0*
20,1,$1+$1,$4,$5,$6,$7,0*
20,1,$1+$1,$6,$7,$8,$9,0*
20,1,$1+$1,$8,$9,$2,$3,0*%
G04 Aperture macros list end*
G04 #@! TA.AperFunction,SMDPad,CuDef*
%ADD10RoundRect,0.250001X0.462499X0.624999X-0.462499X0.624999X-0.462499X-0.624999X0.462499X-0.624999X0*%
G04 #@! TD*
G04 #@! TA.AperFunction,SMDPad,CuDef*
%ADD11RoundRect,0.250000X-0.450000X0.350000X-0.450000X-0.350000X0.450000X-0.350000X0.450000X0.350000X0*%
G04 #@! TD*
G04 #@! TA.AperFunction,SMDPad,CuDef*
%ADD12RoundRect,0.150000X-0.825000X-0.150000X0.825000X-0.150000X0.825000X0.150000X-0.825000X0.150000X0*%
G04 #@! TD*
G04 #@! TA.AperFunction,SMDPad,CuDef*
%ADD13RoundRect,0.250000X-0.537500X-0.425000X0.537500X-0.425000X0.537500X0.425000X-0.537500X0.425000X0*%
G04 #@! TD*
G04 #@! TA.AperFunction,SMDPad,CuDef*
%ADD14RoundRect,0.250000X0.450000X-0.350000X0.450000X0.350000X-0.450000X0.350000X-0.450000X-0.350000X0*%
G04 #@! TD*
G04 #@! TA.AperFunction,SMDPad,CuDef*
%ADD15RoundRect,0.250000X-0.350000X-0.450000X0.350000X-0.450000X0.350000X0.450000X-0.350000X0.450000X0*%
G04 #@! TD*
G04 #@! TA.AperFunction,ComponentPad*
%ADD16R,3.000000X3.000000*%
G04 #@! TD*
G04 #@! TA.AperFunction,ComponentPad*
%ADD17C,3.000000*%
G04 #@! TD*
G04 #@! TA.AperFunction,SMDPad,CuDef*
%ADD18RoundRect,0.250000X-0.425000X0.537500X-0.425000X-0.537500X0.425000X-0.537500X0.425000X0.537500X0*%
G04 #@! TD*
G04 #@! TA.AperFunction,ViaPad*
%ADD19C,0.800000*%
G04 #@! TD*
G04 #@! TA.AperFunction,Conductor*
%ADD20C,0.250000*%
G04 #@! TD*
G04 APERTURE END LIST*
D10*
G04 #@! TO.P,D1,1,K*
G04 #@! TO.N,Net-(D1-Pad1)*
X149975000Y-90000000D03*
G04 #@! TO.P,D1,2,A*
G04 #@! TO.N,+9V*
X147000000Y-90000000D03*
G04 #@! TD*
D11*
G04 #@! TO.P,R4,1*
G04 #@! TO.N,Net-(R3-Pad2)*
X163000000Y-94000000D03*
G04 #@! TO.P,R4,2*
G04 #@! TO.N,/pin_2*
X163000000Y-96000000D03*
G04 #@! TD*
D12*
G04 #@! TO.P,U1,1,GND*
G04 #@! TO.N,GND*
X150685000Y-93095000D03*
G04 #@! TO.P,U1,2,TR*
G04 #@! TO.N,/pin_2*
X150685000Y-94365000D03*
G04 #@! TO.P,U1,3,Q*
G04 #@! TO.N,/pin_3*
X150685000Y-95635000D03*
G04 #@! TO.P,U1,4,R*
G04 #@! TO.N,+9V*
X150685000Y-96905000D03*
G04 #@! TO.P,U1,5,CV*
G04 #@! TO.N,Net-(C1-Pad1)*
X155635000Y-96905000D03*
G04 #@! TO.P,U1,6,THR*
G04 #@! TO.N,/pin_2*
X155635000Y-95635000D03*
G04 #@! TO.P,U1,7,DIS*
G04 #@! TO.N,Net-(R3-Pad2)*
X155635000Y-94365000D03*
G04 #@! TO.P,U1,8,VCC*
G04 #@! TO.N,+9V*
X155635000Y-93095000D03*
G04 #@! TD*
D13*
G04 #@! TO.P,C1,1*
G04 #@! TO.N,Net-(C1-Pad1)*
X158562500Y-99000000D03*
G04 #@! TO.P,C1,2*
G04 #@! TO.N,GND*
X161437500Y-99000000D03*
G04 #@! TD*
D11*
G04 #@! TO.P,R2,1*
G04 #@! TO.N,GND*
X147000000Y-94000000D03*
G04 #@! TO.P,R2,2*
G04 #@! TO.N,/pin_3*
X147000000Y-96000000D03*
G04 #@! TD*
D14*
G04 #@! TO.P,R3,1*
G04 #@! TO.N,+9V*
X159000000Y-96000000D03*
G04 #@! TO.P,R3,2*
G04 #@! TO.N,Net-(R3-Pad2)*
X159000000Y-94000000D03*
G04 #@! TD*
D15*
G04 #@! TO.P,R1,1*
G04 #@! TO.N,Net-(D1-Pad1)*
X153000000Y-90000000D03*
G04 #@! TO.P,R1,2*
G04 #@! TO.N,/pin_3*
X155000000Y-90000000D03*
G04 #@! TD*
D16*
G04 #@! TO.P,J1,1,Pin_1*
G04 #@! TO.N,+9V*
X148460000Y-103000000D03*
D17*
G04 #@! TO.P,J1,2,Pin_2*
G04 #@! TO.N,GND*
X153540000Y-103000000D03*
G04 #@! TD*
D18*
G04 #@! TO.P,C2,1*
G04 #@! TO.N,/pin_2*
X160000000Y-102562500D03*
G04 #@! TO.P,C2,2*
G04 #@! TO.N,GND*
X160000000Y-105437500D03*
G04 #@! TD*
D19*
G04 #@! TO.N,GND*
X153000000Y-100000000D03*
X151000000Y-92000000D03*
G04 #@! TO.N,/pin_2*
X155635000Y-95635000D03*
X149000000Y-94000000D03*
G04 #@! TO.N,+9V*
X159000000Y-96000000D03*
X157000000Y-92000000D03*
G04 #@! TD*
D20*
G04 #@! TO.N,Net-(C1-Pad1)*
X155635000Y-96905000D02*
X156467500Y-96905000D01*
X156467500Y-96905000D02*
X158562500Y-99000000D01*
G04 #@! TO.N,GND*
X160000000Y-105437500D02*
X158000000Y-103437500D01*
X147000000Y-93000000D02*
X150590000Y-93000000D01*
X153000000Y-100000000D02*
X153000000Y-102460000D01*
X158000000Y-101000000D02*
X160000000Y-101000000D01*
X158000000Y-103437500D02*
X158000000Y-101000000D01*
X147000000Y-94000000D02*
X147000000Y-93000000D01*
X150590000Y-93000000D02*
X150685000Y-93095000D01*
X150685000Y-93095000D02*
X150685000Y-92315000D01*
X160000000Y-105437500D02*
X155977500Y-105437500D01*
X155977500Y-105437500D02*
X153540000Y-103000000D01*
X161437500Y-99562500D02*
X161437500Y-99000000D01*
X153000000Y-102460000D02*
X153540000Y-103000000D01*
X150685000Y-92315000D02*
X151000000Y-92000000D01*
X160000000Y-101000000D02*
X161437500Y-99562500D01*
G04 #@! TO.N,/pin_2*
X158000000Y-97000000D02*
X162000000Y-97000000D01*
X162000000Y-97000000D02*
X163000000Y-96000000D01*
X163000000Y-96000000D02*
X163000000Y-99562500D01*
X149365000Y-94365000D02*
X149000000Y-94000000D01*
X163000000Y-99562500D02*
X160000000Y-102562500D01*
X155635000Y-95635000D02*
X156635000Y-95635000D01*
X150685000Y-94365000D02*
X149365000Y-94365000D01*
X156635000Y-95635000D02*
X158000000Y-97000000D01*
G04 #@! TO.N,Net-(D1-Pad1)*
X149975000Y-90000000D02*
X153000000Y-90000000D01*
G04 #@! TO.N,+9V*
X154905000Y-93095000D02*
X155635000Y-93095000D01*
X150095000Y-96905000D02*
X150685000Y-96905000D01*
X154000000Y-94000000D02*
X154905000Y-93095000D01*
X152000000Y-97000000D02*
X154000000Y-95000000D01*
X154000000Y-95000000D02*
X154000000Y-94000000D01*
X150685000Y-100775000D02*
X148460000Y-103000000D01*
X145000000Y-92000000D02*
X145000000Y-98000000D01*
X147000000Y-90000000D02*
X145000000Y-92000000D01*
X155905000Y-93095000D02*
X157000000Y-92000000D01*
X150685000Y-96905000D02*
X151905000Y-96905000D01*
X149000000Y-98000000D02*
X150095000Y-96905000D01*
X155635000Y-93095000D02*
X155905000Y-93095000D01*
X150685000Y-96905000D02*
X150685000Y-100775000D01*
X145000000Y-98000000D02*
X149000000Y-98000000D01*
X151905000Y-96905000D02*
X152000000Y-97000000D01*
G04 #@! TO.N,/pin_3*
X147000000Y-96000000D02*
X150320000Y-96000000D01*
X155000000Y-90000000D02*
X153000000Y-92000000D01*
X153000000Y-95000000D02*
X152365000Y-95635000D01*
X152365000Y-95635000D02*
X150685000Y-95635000D01*
X153000000Y-92000000D02*
X153000000Y-95000000D01*
X150320000Y-96000000D02*
X150685000Y-95635000D01*
G04 #@! TO.N,Net-(R3-Pad2)*
X159000000Y-94000000D02*
X163000000Y-94000000D01*
X156000000Y-94000000D02*
X159000000Y-94000000D01*
X155635000Y-94365000D02*
X156000000Y-94000000D01*
G04 #@! TD*
M02*
